<?xml version="1.0" standalone="no"?>
 <!DOCTYPE svg PUBLIC "-//W3C//DTD SVG 1.1//EN" 
 "http://www.w3.org/Graphics/SVG/1.1/DTD/svg11.dtd"> 
<svg xmlns="http://www.w3.org/2000/svg" version="1.1" 
    width="8.01878cm" height="6.8072cm" viewBox="0 0 31570 26800 ">
<title>SVG Picture created as 3W Amplifier-brd.svg date 2019/01/27 10:53:30 </title>
  <desc>Picture generated by PCBNEW </desc>
<g style="fill:#000000; fill-opacity:1;stroke:#000000; stroke-opacity:1;
stroke-linecap:round; stroke-linejoin:round; "
 transform="translate(0 0) scale(1 1)">
</g>
<g style="fill:#000000; fill-opacity:0.0; 
stroke:#000000; stroke-width:-0.000393701; stroke-opacity:1; 
stroke-linecap:round; stroke-linejoin:round;">
</g>
<g style="fill:#000000; fill-opacity:0.0; 
stroke:#000000; stroke-width:0; stroke-opacity:1; 
stroke-linecap:round; stroke-linejoin:round;">
</g>
<g style="fill:#000000; fill-opacity:1.0; 
stroke:#000000; stroke-width:0; stroke-opacity:1; 
stroke-linecap:round; stroke-linejoin:round;">
<polyline style="fill-rule:evenodd;"
points="14403,9121
14412,9122
14422,9125
14431,9128
14439,9132
14448,9137
14455,9143
14462,9149
14469,9156
14475,9164
14480,9172
14484,9181
14487,9190
14489,9199
14491,9209
14491,9219
14491,9711
14491,9721
14489,9730
14487,9740
14484,9749
14480,9757
14475,9766
14469,9773
14462,9781
14455,9787
14448,9793
14439,9798
14431,9802
14422,9805
14412,9807
14403,9809
14393,9809
14028,9809
14019,9809
14009,9807
14000,9805
13991,9802
13982,9798
13974,9793
13966,9787
13959,9781
13952,9773
13947,9766
13942,9757
13938,9749
13934,9740
13932,9730
13931,9721
13930,9711
13930,9219
13931,9209
13932,9199
13934,9190
13938,9181
13942,9172
13947,9164
13952,9156
13959,9149
13966,9143
13974,9137
13982,9132
13991,9128
14000,9125
14009,9122
14019,9121
14028,9120
14393,9120
14403,9121
" /> 
<polyline style="fill-rule:evenodd;"
points="15574,9121
15583,9122
15593,9125
15602,9128
15611,9132
15619,9137
15627,9143
15634,9149
15640,9156
15646,9164
15651,9172
15655,9181
15658,9190
15661,9199
15662,9209
15662,9219
15662,9711
15662,9721
15661,9730
15658,9740
15655,9749
15651,9757
15646,9766
15640,9773
15634,9781
15627,9787
15619,9793
15611,9798
15602,9802
15593,9805
15583,9807
15574,9809
15564,9809
15200,9809
15190,9809
15180,9807
15171,9805
15162,9802
15153,9798
15145,9793
15137,9787
15130,9781
15124,9773
15118,9766
15113,9757
15109,9749
15106,9740
15103,9730
15102,9721
15101,9711
15101,9219
15102,9209
15103,9199
15106,9190
15109,9181
15113,9172
15118,9164
15124,9156
15130,9149
15137,9143
15145,9137
15153,9132
15162,9128
15171,9125
15180,9122
15190,9121
15200,9120
15564,9120
15574,9121
" /> 
<polyline style="fill-rule:evenodd;"
points="11852,13270
11862,13272
11871,13274
11880,13277
11889,13282
11897,13287
11905,13292
11912,13299
11919,13306
11924,13314
11929,13322
11933,13331
11937,13340
11939,13349
11940,13359
11941,13368
11941,13733
11940,13742
11939,13752
11937,13761
11933,13770
11929,13779
11924,13787
11919,13795
11912,13802
11905,13809
11897,13814
11889,13819
11880,13824
11871,13827
11862,13829
11852,13831
11843,13831
11350,13831
11340,13831
11331,13829
11322,13827
11312,13824
11304,13819
11295,13814
11288,13809
11281,13802
11274,13795
11268,13787
11263,13779
11259,13770
11256,13761
11254,13752
11252,13742
11252,13733
11252,13368
11252,13359
11254,13349
11256,13340
11259,13331
11263,13322
11268,13314
11274,13306
11281,13299
11288,13292
11295,13287
11304,13282
11312,13277
11322,13274
11331,13272
11340,13270
11350,13270
11843,13270
11852,13270
" /> 
<polyline style="fill-rule:evenodd;"
points="11852,12099
11862,12101
11871,12103
11880,12106
11889,12110
11897,12115
11905,12121
11912,12127
11919,12135
11924,12142
11929,12151
11933,12159
11937,12168
11939,12178
11940,12187
11941,12197
11941,12562
11940,12571
11939,12581
11937,12590
11933,12599
11929,12608
11924,12616
11919,12624
11912,12631
11905,12637
11897,12643
11889,12648
11880,12652
11871,12656
11862,12658
11852,12659
11843,12660
11350,12660
11340,12659
11331,12658
11322,12656
11312,12652
11304,12648
11295,12643
11288,12637
11281,12631
11274,12624
11268,12616
11263,12608
11259,12599
11256,12590
11254,12581
11252,12571
11252,12562
11252,12197
11252,12187
11254,12178
11256,12168
11259,12159
11263,12151
11268,12142
11274,12135
11281,12127
11288,12121
11295,12115
11304,12110
11312,12106
11322,12103
11331,12101
11340,12099
11350,12099
11843,12099
11852,12099
" /> 
</g>
<g style="fill:#000000; fill-opacity:1.0; 
stroke:#000000; stroke-width:1968.5; stroke-opacity:1; 
stroke-linecap:round; stroke-linejoin:round;">
</g>
<g style="fill:#000000; fill-opacity:0.0; 
stroke:#000000; stroke-width:1968.5; stroke-opacity:1; 
stroke-linecap:round; stroke-linejoin:round;">
<path d="M5146 16881
L5146 18849
" />
<path d="M1896 16881
L1896 18849
" />
<path d="M8396 16881
L8396 18849
" />
</g>
<g style="fill:#000000; fill-opacity:0.0; 
stroke:#000000; stroke-width:0; stroke-opacity:1; 
stroke-linecap:round; stroke-linejoin:round;">
</g>
<g style="fill:#000000; fill-opacity:1.0; 
stroke:#000000; stroke-width:0; stroke-opacity:1; 
stroke-linecap:round; stroke-linejoin:round;">
<polyline style="fill-rule:evenodd;"
points="9617,11450
9617,12080
8593,12080
8593,11450
9617,11450
" /> 
<polyline style="fill-rule:evenodd;"
points="8200,11450
8200,12080
7176,12080
7176,11450
8200,11450
" /> 
</g>
<g style="fill:#000000; fill-opacity:1.0; 
stroke:#000000; stroke-width:590.551; stroke-opacity:1; 
stroke-linecap:round; stroke-linejoin:round;">
</g>
<g style="fill:#000000; fill-opacity:0.0; 
stroke:#000000; stroke-width:590.551; stroke-opacity:1; 
stroke-linecap:round; stroke-linejoin:round;">
<path d="M18783 19133
L18783 20314
" />
<path d="M16796 19133
L16796 20314
" />
<path d="M14846 19133
L14846 20314
" />
</g>
<g style="fill:#000000; fill-opacity:0.0; 
stroke:#000000; stroke-width:0; stroke-opacity:1; 
stroke-linecap:round; stroke-linejoin:round;">
</g>
<g style="fill:#000000; fill-opacity:1.0; 
stroke:#000000; stroke-width:0; stroke-opacity:1; 
stroke-linecap:round; stroke-linejoin:round;">
<polyline style="fill-rule:evenodd;"
points="21228,15357
21228,14373
22606,14373
22606,15357
21228,15357
" /> 
<polyline style="fill-rule:evenodd;"
points="23787,15357
23787,14373
25165,14373
25165,15357
23787,15357
" /> 
<polyline style="fill-rule:evenodd;"
points="11874,14621
11883,14622
11893,14625
11902,14628
11911,14632
11919,14637
11927,14643
11934,14649
11940,14656
11946,14664
11951,14672
11955,14681
11958,14690
11961,14699
11962,14709
11962,14719
11962,15211
11962,15221
11961,15230
11958,15240
11955,15249
11951,15257
11946,15266
11940,15273
11934,15281
11927,15287
11919,15293
11911,15298
11902,15302
11893,15305
11883,15307
11874,15309
11864,15309
11500,15309
11490,15309
11480,15307
11471,15305
11462,15302
11453,15298
11445,15293
11437,15287
11430,15281
11424,15273
11418,15266
11413,15257
11409,15249
11406,15240
11403,15230
11402,15221
11401,15211
11401,14719
11402,14709
11403,14699
11406,14690
11409,14681
11413,14672
11418,14664
11424,14656
11430,14649
11437,14643
11445,14637
11453,14632
11462,14628
11471,14625
11480,14622
11490,14621
11500,14620
11864,14620
11874,14621
" /> 
<polyline style="fill-rule:evenodd;"
points="10703,14621
10712,14622
10722,14625
10731,14628
10739,14632
10748,14637
10755,14643
10762,14649
10769,14656
10775,14664
10780,14672
10784,14681
10787,14690
10789,14699
10791,14709
10791,14719
10791,15211
10791,15221
10789,15230
10787,15240
10784,15249
10780,15257
10775,15266
10769,15273
10762,15281
10755,15287
10748,15293
10739,15298
10731,15302
10722,15305
10712,15307
10703,15309
10693,15309
10328,15309
10319,15309
10309,15307
10300,15305
10291,15302
10282,15298
10274,15293
10266,15287
10259,15281
10252,15273
10247,15266
10242,15257
10238,15249
10234,15240
10232,15230
10231,15221
10230,15211
10230,14719
10231,14709
10232,14699
10234,14690
10238,14681
10242,14672
10247,14664
10252,14656
10259,14649
10266,14643
10274,14637
10282,14632
10291,14628
10300,14625
10309,14622
10319,14621
10328,14620
10693,14620
10703,14621
" /> 
<polyline style="fill-rule:evenodd;"
points="10703,15621
10712,15622
10722,15625
10731,15628
10739,15632
10748,15637
10755,15643
10762,15649
10769,15656
10775,15664
10780,15672
10784,15681
10787,15690
10789,15699
10791,15709
10791,15719
10791,16211
10791,16221
10789,16230
10787,16240
10784,16249
10780,16257
10775,16266
10769,16273
10762,16281
10755,16287
10748,16293
10739,16298
10731,16302
10722,16305
10712,16307
10703,16309
10693,16309
10328,16309
10319,16309
10309,16307
10300,16305
10291,16302
10282,16298
10274,16293
10266,16287
10259,16281
10252,16273
10247,16266
10242,16257
10238,16249
10234,16240
10232,16230
10231,16221
10230,16211
10230,15719
10231,15709
10232,15699
10234,15690
10238,15681
10242,15672
10247,15664
10252,15656
10259,15649
10266,15643
10274,15637
10282,15632
10291,15628
10300,15625
10309,15622
10319,15621
10328,15620
10693,15620
10703,15621
" /> 
<polyline style="fill-rule:evenodd;"
points="11874,15621
11883,15622
11893,15625
11902,15628
11911,15632
11919,15637
11927,15643
11934,15649
11940,15656
11946,15664
11951,15672
11955,15681
11958,15690
11961,15699
11962,15709
11962,15719
11962,16211
11962,16221
11961,16230
11958,16240
11955,16249
11951,16257
11946,16266
11940,16273
11934,16281
11927,16287
11919,16293
11911,16298
11902,16302
11893,16305
11883,16307
11874,16309
11864,16309
11500,16309
11490,16309
11480,16307
11471,16305
11462,16302
11453,16298
11445,16293
11437,16287
11430,16281
11424,16273
11418,16266
11413,16257
11409,16249
11406,16240
11403,16230
11402,16221
11401,16211
11401,15719
11402,15709
11403,15699
11406,15690
11409,15681
11413,15672
11418,15664
11424,15656
11430,15649
11437,15643
11445,15637
11453,15632
11462,15628
11471,15625
11480,15622
11490,15621
11500,15620
11864,15620
11874,15621
" /> 
<polyline style="fill-rule:evenodd;"
points="21228,11857
21228,10873
22606,10873
22606,11857
21228,11857
" /> 
<polyline style="fill-rule:evenodd;"
points="23787,11857
23787,10873
25165,10873
25165,11857
23787,11857
" /> 
<polyline style="fill-rule:evenodd;"
points="3506,13373
3506,14357
2128,14357
2128,13373
3506,13373
" /> 
<polyline style="fill-rule:evenodd;"
points="6065,13373
6065,14357
4687,14357
4687,13373
6065,13373
" /> 
<polyline style="fill-rule:evenodd;"
points="22674,6921
22683,6922
22693,6925
22702,6928
22711,6932
22719,6937
22727,6943
22734,6949
22740,6956
22746,6964
22751,6972
22755,6981
22758,6990
22761,6999
22762,7009
22762,7019
22762,7511
22762,7521
22761,7530
22758,7540
22755,7549
22751,7557
22746,7566
22740,7573
22734,7581
22727,7587
22719,7593
22711,7598
22702,7602
22693,7605
22683,7607
22674,7609
22664,7609
22300,7609
22290,7609
22280,7607
22271,7605
22262,7602
22253,7598
22245,7593
22237,7587
22230,7581
22224,7573
22218,7566
22213,7557
22209,7549
22206,7540
22203,7530
22202,7521
22201,7511
22201,7019
22202,7009
22203,6999
22206,6990
22209,6981
22213,6972
22218,6964
22224,6956
22230,6949
22237,6943
22245,6937
22253,6932
22262,6928
22271,6925
22280,6922
22290,6921
22300,6920
22664,6920
22674,6921
" /> 
<polyline style="fill-rule:evenodd;"
points="21503,6921
21512,6922
21522,6925
21531,6928
21539,6932
21548,6937
21555,6943
21562,6949
21569,6956
21575,6964
21580,6972
21584,6981
21587,6990
21589,6999
21591,7009
21591,7019
21591,7511
21591,7521
21589,7530
21587,7540
21584,7549
21580,7557
21575,7566
21569,7573
21562,7581
21555,7587
21548,7593
21539,7598
21531,7602
21522,7605
21512,7607
21503,7609
21493,7609
21128,7609
21119,7609
21109,7607
21100,7605
21091,7602
21082,7598
21074,7593
21066,7587
21059,7581
21052,7573
21047,7566
21042,7557
21038,7549
21034,7540
21032,7530
21031,7521
21030,7511
21030,7019
21031,7009
21032,6999
21034,6990
21038,6981
21042,6972
21047,6964
21052,6956
21059,6949
21066,6943
21074,6937
21082,6932
21091,6928
21100,6925
21109,6922
21119,6921
21128,6920
21493,6920
21503,6921
" /> 
<polyline style="fill-rule:evenodd;"
points="21503,3721
21512,3722
21522,3725
21531,3728
21539,3732
21548,3737
21555,3743
21562,3749
21569,3756
21575,3764
21580,3772
21584,3781
21587,3790
21589,3799
21591,3809
21591,3819
21591,4311
21591,4321
21589,4330
21587,4340
21584,4349
21580,4357
21575,4366
21569,4373
21562,4381
21555,4387
21548,4393
21539,4398
21531,4402
21522,4405
21512,4407
21503,4409
21493,4409
21128,4409
21119,4409
21109,4407
21100,4405
21091,4402
21082,4398
21074,4393
21066,4387
21059,4381
21052,4373
21047,4366
21042,4357
21038,4349
21034,4340
21032,4330
21031,4321
21030,4311
21030,3819
21031,3809
21032,3799
21034,3790
21038,3781
21042,3772
21047,3764
21052,3756
21059,3749
21066,3743
21074,3737
21082,3732
21091,3728
21100,3725
21109,3722
21119,3721
21128,3720
21493,3720
21503,3721
" /> 
<polyline style="fill-rule:evenodd;"
points="22674,3721
22683,3722
22693,3725
22702,3728
22711,3732
22719,3737
22727,3743
22734,3749
22740,3756
22746,3764
22751,3772
22755,3781
22758,3790
22761,3799
22762,3809
22762,3819
22762,4311
22762,4321
22761,4330
22758,4340
22755,4349
22751,4357
22746,4366
22740,4373
22734,4381
22727,4387
22719,4393
22711,4398
22702,4402
22693,4405
22683,4407
22674,4409
22664,4409
22300,4409
22290,4409
22280,4407
22271,4405
22262,4402
22253,4398
22245,4393
22237,4387
22230,4381
22224,4373
22218,4366
22213,4357
22209,4349
22206,4340
22203,4330
22202,4321
22201,4311
22201,3819
22202,3809
22203,3799
22206,3790
22209,3781
22213,3772
22218,3764
22224,3756
22230,3749
22237,3743
22245,3737
22253,3732
22262,3728
22271,3725
22280,3722
22290,3721
22300,3720
22664,3720
22674,3721
" /> 
<polyline style="fill-rule:evenodd;"
points="10352,5670
10362,5672
10371,5674
10380,5677
10389,5682
10397,5687
10405,5692
10412,5699
10419,5706
10424,5714
10429,5722
10433,5731
10437,5740
10439,5749
10440,5759
10441,5768
10441,6133
10440,6142
10439,6152
10437,6161
10433,6170
10429,6179
10424,6187
10419,6195
10412,6202
10405,6209
10397,6214
10389,6219
10380,6224
10371,6227
10362,6229
10352,6231
10343,6231
9850,6231
9840,6231
9831,6229
9822,6227
9812,6224
9804,6219
9795,6214
9788,6209
9781,6202
9774,6195
9768,6187
9763,6179
9759,6170
9756,6161
9754,6152
9752,6142
9752,6133
9752,5768
9752,5759
9754,5749
9756,5740
9759,5731
9763,5722
9768,5714
9774,5706
9781,5699
9788,5692
9795,5687
9804,5682
9812,5677
9822,5674
9831,5672
9840,5670
9850,5670
10343,5670
10352,5670
" /> 
<polyline style="fill-rule:evenodd;"
points="10352,4499
10362,4501
10371,4503
10380,4506
10389,4510
10397,4515
10405,4521
10412,4527
10419,4535
10424,4542
10429,4551
10433,4559
10437,4568
10439,4578
10440,4587
10441,4597
10441,4962
10440,4971
10439,4981
10437,4990
10433,4999
10429,5008
10424,5016
10419,5024
10412,5031
10405,5037
10397,5043
10389,5048
10380,5052
10371,5056
10362,5058
10352,5059
10343,5060
9850,5060
9840,5059
9831,5058
9822,5056
9812,5052
9804,5048
9795,5043
9788,5037
9781,5031
9774,5024
9768,5016
9763,5008
9759,4999
9756,4990
9754,4981
9752,4971
9752,4962
9752,4597
9752,4587
9754,4578
9756,4568
9759,4559
9763,4551
9768,4542
9774,4535
9781,4527
9788,4521
9795,4515
9804,4510
9812,4506
9822,4503
9831,4501
9840,4499
9850,4499
10343,4499
10352,4499
" /> 
<polyline style="fill-rule:evenodd;"
points="10274,3421
10283,3422
10293,3425
10302,3428
10311,3432
10319,3437
10327,3443
10334,3449
10340,3456
10346,3464
10351,3472
10355,3481
10358,3490
10361,3499
10362,3509
10362,3519
10362,4011
10362,4021
10361,4030
10358,4040
10355,4049
10351,4057
10346,4066
10340,4073
10334,4081
10327,4087
10319,4093
10311,4098
10302,4102
10293,4105
10283,4107
10274,4109
10264,4109
9900,4109
9890,4109
9880,4107
9871,4105
9862,4102
9853,4098
9845,4093
9837,4087
9830,4081
9824,4073
9818,4066
9813,4057
9809,4049
9806,4040
9803,4030
9802,4021
9801,4011
9801,3519
9802,3509
9803,3499
9806,3490
9809,3481
9813,3472
9818,3464
9824,3456
9830,3449
9837,3443
9845,3437
9853,3432
9862,3428
9871,3425
9880,3422
9890,3421
9900,3420
10264,3420
10274,3421
" /> 
<polyline style="fill-rule:evenodd;"
points="9103,3421
9112,3422
9122,3425
9131,3428
9139,3432
9148,3437
9155,3443
9162,3449
9169,3456
9175,3464
9180,3472
9184,3481
9187,3490
9189,3499
9191,3509
9191,3519
9191,4011
9191,4021
9189,4030
9187,4040
9184,4049
9180,4057
9175,4066
9169,4073
9162,4081
9155,4087
9148,4093
9139,4098
9131,4102
9122,4105
9112,4107
9103,4109
9093,4109
8728,4109
8719,4109
8709,4107
8700,4105
8691,4102
8682,4098
8674,4093
8666,4087
8659,4081
8652,4073
8647,4066
8642,4057
8638,4049
8634,4040
8632,4030
8631,4021
8630,4011
8630,3519
8631,3509
8632,3499
8634,3490
8638,3481
8642,3472
8647,3464
8652,3456
8659,3449
8666,3443
8674,3437
8682,3432
8691,3428
8700,3425
8709,3422
8719,3421
8728,3420
9093,3420
9103,3421
" /> 
</g>
<g style="fill:#000000; fill-opacity:1.0; 
stroke:#000000; stroke-width:787.402; stroke-opacity:1; 
stroke-linecap:round; stroke-linejoin:round;">
</g>
<g style="fill:#000000; fill-opacity:0.0; 
stroke:#000000; stroke-width:787.402; stroke-opacity:1; 
stroke-linecap:round; stroke-linejoin:round;">
<path d="M25896 18174
L25896 19355
" />
<path d="M27746 18174
L27746 19355
" />
</g>
<g style="fill:#000000; fill-opacity:0.0; 
stroke:#000000; stroke-width:0; stroke-opacity:1; 
stroke-linecap:round; stroke-linejoin:round;">
</g>
<g style="fill:#000000; fill-opacity:1.0; 
stroke:#000000; stroke-width:0; stroke-opacity:1; 
stroke-linecap:round; stroke-linejoin:round;">
<polyline style="fill-rule:evenodd;"
points="22974,18421
22983,18422
22993,18425
23002,18428
23011,18432
23019,18437
23027,18443
23034,18449
23040,18456
23046,18464
23051,18472
23055,18481
23058,18490
23061,18499
23062,18509
23062,18519
23062,19011
23062,19021
23061,19030
23058,19040
23055,19049
23051,19057
23046,19066
23040,19073
23034,19081
23027,19087
23019,19093
23011,19098
23002,19102
22993,19105
22983,19107
22974,19109
22964,19109
22600,19109
22590,19109
22580,19107
22571,19105
22562,19102
22553,19098
22545,19093
22537,19087
22530,19081
22524,19073
22518,19066
22513,19057
22509,19049
22506,19040
22503,19030
22502,19021
22501,19011
22501,18519
22502,18509
22503,18499
22506,18490
22509,18481
22513,18472
22518,18464
22524,18456
22530,18449
22537,18443
22545,18437
22553,18432
22562,18428
22571,18425
22580,18422
22590,18421
22600,18420
22964,18420
22974,18421
" /> 
<polyline style="fill-rule:evenodd;"
points="21803,18421
21812,18422
21822,18425
21831,18428
21839,18432
21848,18437
21855,18443
21862,18449
21869,18456
21875,18464
21880,18472
21884,18481
21887,18490
21889,18499
21891,18509
21891,18519
21891,19011
21891,19021
21889,19030
21887,19040
21884,19049
21880,19057
21875,19066
21869,19073
21862,19081
21855,19087
21848,19093
21839,19098
21831,19102
21822,19105
21812,19107
21803,19109
21793,19109
21428,19109
21419,19109
21409,19107
21400,19105
21391,19102
21382,19098
21374,19093
21366,19087
21359,19081
21352,19073
21347,19066
21342,19057
21338,19049
21334,19040
21332,19030
21331,19021
21330,19011
21330,18519
21331,18509
21332,18499
21334,18490
21338,18481
21342,18472
21347,18464
21352,18456
21359,18449
21366,18443
21374,18437
21382,18432
21391,18428
21400,18425
21409,18422
21419,18421
21428,18420
21793,18420
21803,18421
" /> 
<polyline style="fill-rule:evenodd;"
points="17852,16170
17862,16172
17871,16174
17880,16177
17889,16182
17897,16187
17905,16192
17912,16199
17919,16206
17924,16214
17929,16222
17933,16231
17937,16240
17939,16249
17940,16259
17941,16268
17941,16633
17940,16642
17939,16652
17937,16661
17933,16670
17929,16679
17924,16687
17919,16695
17912,16702
17905,16709
17897,16714
17889,16719
17880,16724
17871,16727
17862,16729
17852,16731
17843,16731
17350,16731
17340,16731
17331,16729
17322,16727
17312,16724
17304,16719
17295,16714
17288,16709
17281,16702
17274,16695
17268,16687
17263,16679
17259,16670
17256,16661
17254,16652
17252,16642
17252,16633
17252,16268
17252,16259
17254,16249
17256,16240
17259,16231
17263,16222
17268,16214
17274,16206
17281,16199
17288,16192
17295,16187
17304,16182
17312,16177
17322,16174
17331,16172
17340,16170
17350,16170
17843,16170
17852,16170
" /> 
<polyline style="fill-rule:evenodd;"
points="17852,14999
17862,15001
17871,15003
17880,15006
17889,15010
17897,15015
17905,15021
17912,15027
17919,15035
17924,15042
17929,15051
17933,15059
17937,15068
17939,15078
17940,15087
17941,15097
17941,15462
17940,15471
17939,15481
17937,15490
17933,15499
17929,15508
17924,15516
17919,15524
17912,15531
17905,15537
17897,15543
17889,15548
17880,15552
17871,15556
17862,15558
17852,15559
17843,15560
17350,15560
17340,15559
17331,15558
17322,15556
17312,15552
17304,15548
17295,15543
17288,15537
17281,15531
17274,15524
17268,15516
17263,15508
17259,15499
17256,15490
17254,15481
17252,15471
17252,15462
17252,15097
17252,15087
17254,15078
17256,15068
17259,15059
17263,15051
17268,15042
17274,15035
17281,15027
17288,15021
17295,15015
17304,15010
17312,15006
17322,15003
17331,15001
17340,14999
17350,14999
17843,14999
17852,14999
" /> 
</g>
<g style="fill:#000000; fill-opacity:1.0; 
stroke:#000000; stroke-width:1968.5; stroke-opacity:1; 
stroke-linecap:round; stroke-linejoin:round;">
</g>
<g style="fill:#000000; fill-opacity:0.0; 
stroke:#000000; stroke-width:1968.5; stroke-opacity:1; 
stroke-linecap:round; stroke-linejoin:round;">
<path d="M6281 3815
L4312 3815
" />
<path d="M6281 7065
L4312 7065
" />
<path d="M26781 7265
L24812 7265
" />
<path d="M26781 4015
L24812 4015
" />
</g>
<g style="fill:#000000; fill-opacity:0.0; 
stroke:#000000; stroke-width:196.85; stroke-opacity:1; 
stroke-linecap:round; stroke-linejoin:round;">
<path d="M13796 14010
L13796 13420
" />
<path d="M14296 14010
L14296 13420
" />
<path d="M14796 14010
L14796 13420
" />
<path d="M15296 14010
L15296 13420
" />
<path d="M15796 14010
L15796 13420
" />
<path d="M16296 14010
L16296 13420
" />
<path d="M16796 14010
L16796 13420
" />
<path d="M17296 14010
L17296 13420
" />
<path d="M17296 11760
L17296 11170
" />
<path d="M16796 11760
L16796 11170
" />
<path d="M16296 11760
L16296 11170
" />
<path d="M15796 11760
L15796 11170
" />
<path d="M15296 11760
L15296 11170
" />
<path d="M14796 11760
L14796 11170
" />
<path d="M14296 11760
L14296 11170
" />
<path d="M13796 11760
L13796 11170
" />
</g>
<g style="fill:#000000; fill-opacity:0.0; 
stroke:#000000; stroke-width:0; stroke-opacity:1; 
stroke-linecap:round; stroke-linejoin:round;">
</g>
<g style="fill:#000000; fill-opacity:1.0; 
stroke:#000000; stroke-width:0; stroke-opacity:1; 
stroke-linecap:round; stroke-linejoin:round;">
<polyline style="fill-rule:evenodd;"
points="14752,14914
14762,14915
14771,14917
14780,14921
14789,14925
14797,14930
14805,14935
14812,14942
14819,14949
14824,14957
14829,14965
14833,14974
14837,14983
14839,14992
14840,15002
14841,15011
14841,15376
14840,15386
14839,15395
14837,15404
14833,15413
14829,15422
14824,15430
14819,15438
14812,15445
14805,15452
14797,15458
14789,15463
14780,15467
14771,15470
14762,15472
14752,15474
14743,15474
14250,15474
14240,15474
14231,15472
14222,15470
14212,15467
14204,15463
14195,15458
14188,15452
14181,15445
14174,15438
14168,15430
14163,15422
14159,15413
14156,15404
14154,15395
14152,15386
14152,15376
14152,15011
14152,15002
14154,14992
14156,14983
14159,14974
14163,14965
14168,14957
14174,14949
14181,14942
14188,14935
14195,14930
14204,14925
14212,14921
14222,14917
14231,14915
14240,14914
14250,14913
14743,14913
14752,14914
" /> 
<polyline style="fill-rule:evenodd;"
points="14752,16085
14762,16086
14771,16089
14780,16092
14789,16096
14797,16101
14805,16107
14812,16113
14819,16120
14824,16128
14829,16136
14833,16145
14837,16154
14839,16163
14840,16173
14841,16183
14841,16547
14840,16557
14839,16566
14837,16576
14833,16585
14829,16593
14824,16602
14819,16609
14812,16617
14805,16623
14797,16629
14789,16634
14780,16638
14771,16641
14762,16643
14752,16645
14743,16645
14250,16645
14240,16645
14231,16643
14222,16641
14212,16638
14204,16634
14195,16629
14188,16623
14181,16617
14174,16609
14168,16602
14163,16593
14159,16585
14156,16576
14154,16566
14152,16557
14152,16547
14152,16183
14152,16173
14154,16163
14156,16154
14159,16145
14163,16136
14168,16128
14174,16120
14181,16113
14188,16107
14195,16101
14204,16096
14212,16092
14222,16089
14231,16086
14240,16085
14250,16084
14743,16084
14752,16085
" /> 
<polyline style="fill-rule:evenodd;"
points="22674,8521
22683,8522
22693,8525
22702,8528
22711,8532
22719,8537
22727,8543
22734,8549
22740,8556
22746,8564
22751,8572
22755,8581
22758,8590
22761,8599
22762,8609
22762,8619
22762,9111
22762,9121
22761,9130
22758,9140
22755,9149
22751,9157
22746,9166
22740,9173
22734,9181
22727,9187
22719,9193
22711,9198
22702,9202
22693,9205
22683,9207
22674,9209
22664,9209
22300,9209
22290,9209
22280,9207
22271,9205
22262,9202
22253,9198
22245,9193
22237,9187
22230,9181
22224,9173
22218,9166
22213,9157
22209,9149
22206,9140
22203,9130
22202,9121
22201,9111
22201,8619
22202,8609
22203,8599
22206,8590
22209,8581
22213,8572
22218,8564
22224,8556
22230,8549
22237,8543
22245,8537
22253,8532
22262,8528
22271,8525
22280,8522
22290,8521
22300,8520
22664,8520
22674,8521
" /> 
<polyline style="fill-rule:evenodd;"
points="21503,8521
21512,8522
21522,8525
21531,8528
21539,8532
21548,8537
21555,8543
21562,8549
21569,8556
21575,8564
21580,8572
21584,8581
21587,8590
21589,8599
21591,8609
21591,8619
21591,9111
21591,9121
21589,9130
21587,9140
21584,9149
21580,9157
21575,9166
21569,9173
21562,9181
21555,9187
21548,9193
21539,9198
21531,9202
21522,9205
21512,9207
21503,9209
21493,9209
21128,9209
21119,9209
21109,9207
21100,9205
21091,9202
21082,9198
21074,9193
21066,9187
21059,9181
21052,9173
21047,9166
21042,9157
21038,9149
21034,9140
21032,9130
21031,9121
21030,9111
21030,8619
21031,8609
21032,8599
21034,8590
21038,8581
21042,8572
21047,8564
21052,8556
21059,8549
21066,8543
21074,8537
21082,8532
21091,8528
21100,8525
21109,8522
21119,8521
21128,8520
21493,8520
21503,8521
" /> 
<polyline style="fill-rule:evenodd;"
points="15952,16070
15962,16072
15971,16074
15980,16077
15989,16082
15997,16087
16005,16092
16012,16099
16019,16106
16024,16114
16029,16122
16033,16131
16037,16140
16039,16149
16040,16159
16041,16168
16041,16533
16040,16542
16039,16552
16037,16561
16033,16570
16029,16579
16024,16587
16019,16595
16012,16602
16005,16609
15997,16614
15989,16619
15980,16624
15971,16627
15962,16629
15952,16631
15943,16631
15450,16631
15440,16631
15431,16629
15422,16627
15412,16624
15404,16619
15395,16614
15388,16609
15381,16602
15374,16595
15368,16587
15363,16579
15359,16570
15356,16561
15354,16552
15352,16542
15352,16533
15352,16168
15352,16159
15354,16149
15356,16140
15359,16131
15363,16122
15368,16114
15374,16106
15381,16099
15388,16092
15395,16087
15404,16082
15412,16077
15422,16074
15431,16072
15440,16070
15450,16070
15943,16070
15952,16070
" /> 
<polyline style="fill-rule:evenodd;"
points="15952,14899
15962,14901
15971,14903
15980,14906
15989,14910
15997,14915
16005,14921
16012,14927
16019,14935
16024,14942
16029,14951
16033,14959
16037,14968
16039,14978
16040,14987
16041,14997
16041,15362
16040,15371
16039,15381
16037,15390
16033,15399
16029,15408
16024,15416
16019,15424
16012,15431
16005,15437
15997,15443
15989,15448
15980,15452
15971,15456
15962,15458
15952,15459
15943,15460
15450,15460
15440,15459
15431,15458
15422,15456
15412,15452
15404,15448
15395,15443
15388,15437
15381,15431
15374,15424
15368,15416
15363,15408
15359,15399
15356,15390
15354,15381
15352,15371
15352,15362
15352,14997
15352,14987
15354,14978
15356,14968
15359,14959
15363,14951
15368,14942
15374,14935
15381,14927
15388,14921
15395,14915
15404,14910
15412,14906
15422,14903
15431,14901
15440,14899
15450,14899
15943,14899
15952,14899
" /> 
<polyline style="fill-rule:evenodd;"
points="16952,5170
16962,5172
16971,5174
16980,5177
16989,5182
16997,5187
17005,5192
17012,5199
17019,5206
17024,5214
17029,5222
17033,5231
17037,5240
17039,5249
17040,5259
17041,5268
17041,5633
17040,5642
17039,5652
17037,5661
17033,5670
17029,5679
17024,5687
17019,5695
17012,5702
17005,5709
16997,5714
16989,5719
16980,5724
16971,5727
16962,5729
16952,5731
16943,5731
16450,5731
16440,5731
16431,5729
16422,5727
16412,5724
16404,5719
16395,5714
16388,5709
16381,5702
16374,5695
16368,5687
16363,5679
16359,5670
16356,5661
16354,5652
16352,5642
16352,5633
16352,5268
16352,5259
16354,5249
16356,5240
16359,5231
16363,5222
16368,5214
16374,5206
16381,5199
16388,5192
16395,5187
16404,5182
16412,5177
16422,5174
16431,5172
16440,5170
16450,5170
16943,5170
16952,5170
" /> 
<polyline style="fill-rule:evenodd;"
points="16952,3999
16962,4001
16971,4003
16980,4006
16989,4010
16997,4015
17005,4021
17012,4027
17019,4035
17024,4042
17029,4051
17033,4059
17037,4068
17039,4078
17040,4087
17041,4097
17041,4462
17040,4471
17039,4481
17037,4490
17033,4499
17029,4508
17024,4516
17019,4524
17012,4531
17005,4537
16997,4543
16989,4548
16980,4552
16971,4556
16962,4558
16952,4559
16943,4560
16450,4560
16440,4559
16431,4558
16422,4556
16412,4552
16404,4548
16395,4543
16388,4537
16381,4531
16374,4524
16368,4516
16363,4508
16359,4499
16356,4490
16354,4481
16352,4471
16352,4462
16352,4097
16352,4087
16354,4078
16356,4068
16359,4059
16363,4051
16368,4042
16374,4035
16381,4027
16388,4021
16395,4015
16404,4010
16412,4006
16422,4003
16431,4001
16440,3999
16450,3999
16943,3999
16952,3999
" /> 
<polyline style="fill-rule:evenodd;"
points="16718,2783
16718,3326
16541,3326
16541,2783
16718,2783
" /> 
<polyline style="fill-rule:evenodd;"
points="15694,2783
15694,3326
15517,3326
15517,2783
15694,2783
" /> 
<polyline style="fill-rule:evenodd;"
points="17377,2500
17377,3326
16797,3326
16797,2500
17377,2500
" /> 
<polyline style="fill-rule:evenodd;"
points="15438,2500
15438,3326
14858,3326
14858,2500
15438,2500
" /> 
<polyline style="fill-rule:evenodd;"
points="17731,1633
17731,2381
16796,2381
16796,1633
17731,1633
" /> 
<polyline style="fill-rule:evenodd;"
points="15439,1633
15439,2381
14504,2381
14504,1633
15439,1633
" /> 
<polyline style="fill-rule:evenodd;"
points="16680,1633
16680,2381
16217,2381
16217,1633
16680,1633
" /> 
<polyline style="fill-rule:evenodd;"
points="16018,1633
16018,2381
15556,2381
15556,1633
16018,1633
" /> 
<polyline style="fill-rule:evenodd;"
points="12652,4056
12662,4057
12671,4060
12680,4063
12689,4067
12697,4072
12705,4078
12712,4084
12719,4091
12724,4099
12729,4108
12733,4116
12737,4125
12739,4135
12740,4144
12741,4154
12741,4518
12740,4528
12739,4538
12737,4547
12733,4556
12729,4565
12724,4573
12719,4581
12712,4588
12705,4594
12697,4600
12689,4605
12680,4609
12671,4612
12662,4615
12652,4616
12643,4617
12150,4617
12140,4616
12131,4615
12122,4612
12112,4609
12104,4605
12095,4600
12088,4594
12081,4588
12074,4581
12068,4573
12063,4565
12059,4556
12056,4547
12054,4538
12052,4528
12052,4518
12052,4154
12052,4144
12054,4135
12056,4125
12059,4116
12063,4108
12068,4099
12074,4091
12081,4084
12088,4078
12095,4072
12104,4067
12112,4063
12122,4060
12131,4057
12140,4056
12150,4056
12643,4056
12652,4056
" /> 
<polyline style="fill-rule:evenodd;"
points="12652,2885
12662,2886
12671,2889
12680,2892
12689,2896
12697,2901
12705,2907
12712,2913
12719,2920
12724,2928
12729,2936
12733,2945
12737,2954
12739,2963
12740,2973
12741,2983
12741,3347
12740,3357
12739,3366
12737,3376
12733,3385
12729,3393
12724,3402
12719,3409
12712,3417
12705,3423
12697,3429
12689,3434
12680,3438
12671,3441
12662,3443
12652,3445
12643,3445
12150,3445
12140,3445
12131,3443
12122,3441
12112,3438
12104,3434
12095,3429
12088,3423
12081,3417
12074,3409
12068,3402
12063,3393
12059,3385
12056,3376
12054,3366
12052,3357
12052,3347
12052,2983
12052,2973
12054,2963
12056,2954
12059,2945
12063,2936
12068,2928
12074,2920
12081,2913
12088,2907
12095,2901
12104,2896
12112,2892
12122,2889
12131,2886
12140,2885
12150,2884
12643,2884
12652,2885
" /> 
</g>
<g style="fill:#000000; fill-opacity:1.0; 
stroke:#000000; stroke-width:141.732; stroke-opacity:1; 
stroke-linecap:round; stroke-linejoin:round;">
</g>
<g style="fill:#000000; fill-opacity:0.0; 
stroke:#000000; stroke-width:141.732; stroke-opacity:1; 
stroke-linecap:round; stroke-linejoin:round;">
<path d="M5996 17981
L5996 18965
" />
<path d="M5146 16881
L5146 17865
" />
<path d="M7062 14965
L5146 16881
" />
<path d="M10511 14965
L7062 14965
" />
<path d="M15296 11465
L15796 11465
" />
<path d="M19883 17352
L19883 19724
" />
<path d="M16080 16350
L16095 16365
" />
<path d="M15696 16350
L16080 16350
" />
<path d="M16396 16365
L16896 15865
" />
<path d="M16095 16365
L16396 16365
" />
<path d="M16896 15865
L18396 15865
" />
<path d="M18396 15865
L19883 17352
" />
<path d="M18396 15865
L18396 15688
" />
<path d="M15296 12965
L15296 11465
" />
<path d="M18396 15688
L18396 12965
" />
<path d="M2817 18894
L2746 18965
" />
<path d="M21311 7265
L21311 6881
" />
<path d="M24476 14865
L24476 11365
" />
<path d="M21311 6881
L21311 4065
" />
<path d="M21311 2179
L21311 4065
" />
<path d="M25296 11365
L28296 8365
" />
<path d="M24476 11365
L25296 11365
" />
<path d="M28296 8365
L28296 3365
" />
<path d="M28296 3365
L27096 2165
" />
<path d="M27096 2165
L21296 2165
" />
<path d="M21296 2165
L21311 2179
" />
<path d="M10096 3779
L10082 3765
" />
<path d="M10096 4779
L10096 3779
" />
<path d="M15651 3420
L15651 3055
" />
<path d="M15696 3465
L15651 3420
" />
<path d="M21311 4065
L21007 4369
" />
<path d="M18200 4369
L17796 4772
" />
<path d="M17796 4772
L17789 4772
" />
<path d="M17789 4772
L17696 4865
" />
<path d="M21007 4369
L18200 4369
" />
<path d="M17696 4865
L15696 4865
" />
<path d="M10402 3765
L15696 3765
" />
<path d="M10082 3765
L10402 3765
" />
<path d="M15696 4865
L15696 3765
" />
<path d="M15696 3765
L15696 3465
" />
<path d="M19220 19724
L19883 19724
" />
<path d="M18783 19724
L19220 19724
" />
<path d="M2817 13185
L2696 13065
" />
<path d="M2817 13865
L2817 13185
" />
<path d="M7688 11765
L2696 11765
" />
<path d="M2696 13065
L2696 11765
" />
<path d="M2620 13865
L2817 13865
" />
<path d="M1896 14588
L2620 13865
" />
<path d="M1896 17865
L1896 14588
" />
<path d="M15796 15079
L15696 15179
" />
<path d="M15796 13715
L15796 15079
" />
<path d="M15796 13179
L15796 12965
" />
<path d="M15796 13715
L15796 13179
" />
<path d="M18396 12965
L15796 12965
" />
<path d="M15796 12965
L15296 12965
" />
<path d="M21611 18765
L21611 18381
" />
<path d="M21611 18381
L21596 18367
" />
<path d="M24476 16887
L24476 14865
" />
<path d="M24476 16887
L24474 16887
" />
<path d="M24474 16887
L23696 17665
" />
<path d="M23696 17665
L21996 17665
" />
<path d="M21611 18050
L21611 18765
" />
<path d="M21996 17665
L21611 18050
" />
<path d="M20652 19724
L21611 18765
" />
<path d="M19883 19724
L20652 19724
" />
<path d="M10082 2450
L10082 3765
" />
<path d="M9996 2365
L10082 2450
" />
<path d="M3196 2365
L9996 2365
" />
<path d="M2696 11765
L2696 2865
" />
<path d="M2696 2865
L3196 2365
" />
<path d="M8611 17865
L8396 17865
" />
<path d="M10511 15965
L8611 17865
" />
<path d="M12596 14965
L11682 14965
" />
<path d="M13396 15765
L12596 14965
" />
<path d="M16296 13715
L16296 15765
" />
<path d="M16296 15765
L13396 15765
" />
<path d="M14112 16365
L14496 16365
" />
<path d="M11698 16365
L14112 16365
" />
<path d="M11682 16349
L11698 16365
" />
<path d="M11682 15965
L11682 16349
" />
<path d="M22482 7265
L25796 7265
" />
<path d="M22482 8481
L22482 7265
" />
<path d="M22482 8865
L22482 8481
" />
<path d="M17296 11170
L17296 11465
" />
<path d="M19601 8865
L17296 11170
" />
<path d="M21311 8865
L19601 8865
" />
<path d="M25746 4065
L25796 4015
" />
<path d="M22482 4065
L25746 4065
" />
<path d="M22482 5779
L22482 4065
" />
<path d="M22296 10165
L21896 9765
" />
<path d="M21896 6365
L22482 5779
" />
<path d="M23196 16165
L23196 10165
" />
<path d="M21396 16165
L23196 16165
" />
<path d="M23196 10165
L22296 10165
" />
<path d="M16296 12065
L16796 12565
" />
<path d="M21896 9765
L21896 6365
" />
<path d="M16796 12565
L20096 12565
" />
<path d="M20096 12565
L20596 13065
" />
<path d="M20596 13065
L20596 15365
" />
<path d="M16296 11465
L16296 12065
" />
<path d="M20596 15365
L21396 16165
" />
<path d="M5296 7065
L8982 7065
" />
<path d="M9377 6750
L9296 6750
" />
<path d="M13796 11170
L9377 6750
" />
<path d="M13796 11465
L13796 11170
" />
<path d="M8982 7065
L9296 6750
" />
<path d="M9296 6750
L10096 5950
" />
<path d="M5346 3765
L5296 3815
" />
<path d="M8911 3765
L5346 3765
" />
<path d="M14796 8365
L14796 11465
" />
<path d="M11796 5365
L14796 8365
" />
<path d="M8896 5365
L11796 5365
" />
<path d="M8896 4163
L8896 5365
" />
<path d="M8911 3765
L8911 4149
" />
<path d="M8911 4149
L8896 4163
" />
<path d="M21917 11999
L21917 11365
" />
<path d="M21751 12165
L21917 11999
" />
<path d="M16961 12165
L21751 12165
" />
<path d="M16796 12000
L16961 12165
" />
<path d="M16796 11465
L16796 12000
" />
<path d="M21917 12165
L21751 12165
" />
<path d="M21917 12165
L21917 14865
" />
<path d="M21917 11999
L21917 12165
" />
<path d="M16696 5770
L16796 5870
" />
<path d="M16696 5450
L16696 5770
" />
<path d="M14846 20815
L14846 19724
" />
<path d="M15196 21165
L14846 20815
" />
<path d="M27746 19355
L27696 19405
" />
<path d="M27746 18765
L27746 19355
" />
<path d="M26472 21165
L15196 21165
" />
<path d="M27746 19891
L26472 21165
" />
<path d="M27746 18765
L27746 19891
" />
<path d="M16796 5870
L16796 9265
" />
<path d="M16696 5450
L14382 5450
" />
<path d="M14382 5450
L13282 4350
" />
<path d="M14296 12365
L14296 11465
" />
<path d="M11995 12365
L14296 12365
" />
<path d="M11596 12379
L11980 12379
" />
<path d="M11980 12379
L11995 12365
" />
<path d="M12982 4336
L12996 4350
" />
<path d="M12396 4336
L12982 4336
" />
<path d="M13282 4350
L12996 4350
" />
<path d="M12996 4350
L12396 4350
" />
<path d="M13678 16865
L11096 16865
" />
<path d="M14846 18033
L14846 19724
" />
<path d="M13678 16865
L14846 18033
" />
<path d="M11096 16865
L11096 13965
" />
<path d="M11346 13715
L13796 13715
" />
<path d="M11196 13865
L5376 13865
" />
<path d="M11196 13865
L11282 13865
" />
<path d="M11282 13865
L11596 13550
" />
<path d="M11346 13715
L11196 13865
" />
<path d="M11096 13965
L11346 13715
" />
<path d="M16696 9465
L16796 9565
" />
<path d="M15382 9465
L16696 9465
" />
<path d="M16796 9265
L16796 9565
" />
<path d="M16796 9565
L16796 11465
" />
<path d="M14211 9465
L14211 10779
" />
<path d="M14296 10865
L14296 11465
" />
<path d="M14211 10779
L14296 10865
" />
<path d="M9105 12222
L9105 11765
" />
<path d="M9848 12965
L9105 12222
" />
<path d="M14296 12965
L9848 12965
" />
<path d="M14296 13715
L14296 12965
" />
<path d="M16796 14250
L16796 13715
" />
<path d="M16796 14863
L16796 14250
" />
<path d="M17212 15279
L16796 14863
" />
<path d="M17596 15279
L17212 15279
" />
<path d="M22782 18765
L23102 18765
" />
<path d="M22782 18765
L25896 18765
" />
<path d="M16796 17250
L17596 16450
" />
<path d="M16796 19724
L16796 17250
" />
<path d="M14796 14894
L14496 15194
" />
<path d="M14796 13715
L14796 14894
" />
<path d="M16696 3959
L16496 3759
" />
<path d="M16696 4279
L16696 3959
" />
<path d="M16496 3188
L16584 3100
" />
<path d="M16496 3759
L16496 3188
" />
<path d="M3496 15744
L5175 14065
" />
<path d="M3496 19965
L3496 15744
" />
<path d="M2696 20765
L3496 19965
" />
<path d="M496 19965
L1296 20765
" />
<path d="M1296 20765
L2696 20765
" />
<path d="M496 3565
L496 19965
" />
<path d="M2796 2165
L496 4465
" />
<path d="M12396 3165
L11296 2065
" />
<path d="M11196 1965
L2996 1965
" />
<path d="M12396 3165
L11196 1965
" />
<path d="M2996 1965
L796 4165
" />
</g>
<g style="fill:#FFFFFF; fill-opacity:0.0; 
stroke:#FFFFFF; stroke-width:141.732; stroke-opacity:1; 
stroke-linecap:round; stroke-linejoin:round;">
</g>
<g style="fill:#000000; fill-opacity:0.0; 
stroke:#000000; stroke-width:141.732; stroke-opacity:1; 
stroke-linecap:round; stroke-linejoin:round;">
</g> 
</svg>
